<?xml version="1.0" encoding="UTF-8"?>
<svg version="1.1" xmlns="http://www.w3.org/2000/svg" width="210" height="181">
<path d="M0 0 C69.3 0 138.6 0 210 0 C210 59.73 210 119.46 210 181 C140.7 181 71.4 181 0 181 C0 121.27 0 61.54 0 0 Z " fill="#FEFEFE" transform="translate(0,0)"/>
<path d="M0 0 C2.01171875 1.609375 2.01171875 1.609375 3.6875 3.75 C4.24824219 4.44609375 4.80898437 5.1421875 5.38671875 5.859375 C7 8 7 8 8.43359375 10.26953125 C9.84756828 12.21925102 9.84756828 12.21925102 12.0859375 12.21484375 C12.84132813 12.12332031 13.59671875 12.03179687 14.375 11.9375 C17.84587842 11.8191746 18.78884991 11.87147386 21.875 13.75 C24.96977723 18.48318871 25.92069637 23.49818392 27 29 C28.546875 28.87625 28.546875 28.87625 30.125 28.75 C34.6996019 29.04513561 36.52129839 30.07472819 40 33 C44.13206261 37.82236012 43.33707902 43.31783331 43.1875 49.3125 C43.16719727 50.85260742 43.16719727 50.85260742 43.14648438 52.42382812 C43.11123883 54.94975909 43.061967 57.4746066 43 60 C43.9590625 60.185625 43.9590625 60.185625 44.9375 60.375 C45.618125 60.58125 46.29875 60.7875 47 61 C48.50934217 64.01868435 48.26580081 67.12808398 48.3125 70.4375 C48.35600586 71.4594043 48.35600586 71.4594043 48.40039062 72.50195312 C48.42578125 74.49609375 48.42578125 74.49609375 48 78 C47.34386719 78.45117188 46.68773437 78.90234375 46.01171875 79.3671875 C43.81910681 80.78487537 43.81910681 80.78487537 43.6418457 82.96411133 C43.48392105 86.42346297 43.49638807 89.87180672 43.51171875 93.33398438 C43.41823299 99.02386753 43.01025701 104.62696467 39 109 C33.92681983 111.58665173 29.77579738 112.43755165 24.06445312 112.38818359 C23.30414291 112.39344055 22.5438327 112.39869751 21.76048279 112.40411377 C19.26719125 112.41723147 16.77454713 112.4086053 14.28125 112.3984375 C12.53682331 112.40046061 10.79239744 112.40337402 9.04797363 112.40713501 C5.39990145 112.41154721 1.7520503 112.405163 -1.89599609 112.39111328 C-6.55977729 112.37402201 -11.22304046 112.38386913 -15.88680267 112.40183067 C-19.48659125 112.41269843 -23.08625807 112.40920848 -26.68605042 112.4014473 C-28.40515709 112.39945355 -30.124275 112.4018754 -31.84336853 112.40888596 C-34.25069236 112.41654995 -36.65719041 112.40482796 -39.06445312 112.38818359 C-39.76699722 112.39425629 -40.46954132 112.40032898 -41.19337463 112.40658569 C-46.22337654 112.34252429 -49.59721246 111.25800202 -54 109 C-57.79287905 104.95426234 -58.13282143 101.19252554 -58.20874023 95.80371094 C-58.22803085 94.5251825 -58.24732147 93.24665405 -58.26719666 91.92938232 C-58.28200489 90.53105687 -58.29577815 89.13272013 -58.30859375 87.734375 C-58.31516558 87.02874672 -58.3217374 86.32311844 -58.32850838 85.59610748 C-58.36107522 81.85982772 -58.38553074 78.12357612 -58.4050293 74.38720703 C-58.42282725 71.3024729 -58.45762388 68.21865559 -58.50756836 65.13427734 C-58.56791802 61.4024422 -58.59852436 57.67145543 -58.60820198 53.93915558 C-58.6167338 52.52138642 -58.63549624 51.10363855 -58.6649456 49.6861496 C-58.90977633 37.22948524 -58.90977633 37.22948524 -55.2331543 32.67358398 C-52.88747659 30.48731916 -50.83054978 29.09333387 -47.6484375 28.42578125 C-42.4801013 26.99709157 -38.85632856 24.41006366 -34.625 21.1875 C-33.86477539 20.62651611 -33.10455078 20.06553223 -32.32128906 19.48754883 C-28.1198132 16.38018943 -23.96745431 13.21056954 -19.8203125 10.03125 C-18.97259277 9.38905518 -18.12487305 8.74686035 -17.25146484 8.08520508 C-15.61409004 6.84303112 -13.98631938 5.58806946 -12.36962891 4.3190918 C-5.112192 -1.18317107 -5.112192 -1.18317107 0 0 Z " fill="#C55D24" transform="translate(113,38)"/>
<path d="M0 0 C2.01171875 1.609375 2.01171875 1.609375 3.6875 3.75 C4.24824219 4.44609375 4.80898437 5.1421875 5.38671875 5.859375 C7 8 7 8 8.43359375 10.26953125 C9.84756828 12.21925102 9.84756828 12.21925102 12.0859375 12.21484375 C12.84132813 12.12332031 13.59671875 12.03179687 14.375 11.9375 C17.84587842 11.8191746 18.78884991 11.87147386 21.875 13.75 C24.96977723 18.48318871 25.92069637 23.49818392 27 29 C28.546875 28.87625 28.546875 28.87625 30.125 28.75 C34.6996019 29.04513561 36.52129839 30.07472819 40 33 C44.13206261 37.82236012 43.33707902 43.31783331 43.1875 49.3125 C43.16719727 50.85260742 43.16719727 50.85260742 43.14648438 52.42382812 C43.11123883 54.94975909 43.061967 57.4746066 43 60 C43.9590625 60.185625 43.9590625 60.185625 44.9375 60.375 C45.618125 60.58125 46.29875 60.7875 47 61 C48.50934217 64.01868435 48.26580081 67.12808398 48.3125 70.4375 C48.35600586 71.4594043 48.35600586 71.4594043 48.40039062 72.50195312 C48.42578125 74.49609375 48.42578125 74.49609375 48 78 C47.34386719 78.45117188 46.68773437 78.90234375 46.01171875 79.3671875 C43.81910681 80.78487537 43.81910681 80.78487537 43.6418457 82.96411133 C43.48392105 86.42346297 43.49638807 89.87180672 43.51171875 93.33398438 C43.41823299 99.02386753 43.01025701 104.62696467 39 109 C33.92681983 111.58665173 29.77579738 112.43755165 24.06445312 112.38818359 C23.30414291 112.39344055 22.5438327 112.39869751 21.76048279 112.40411377 C19.26719125 112.41723147 16.77454713 112.4086053 14.28125 112.3984375 C12.53682331 112.40046061 10.79239744 112.40337402 9.04797363 112.40713501 C5.39990145 112.41154721 1.7520503 112.405163 -1.89599609 112.39111328 C-6.55977729 112.37402201 -11.22304046 112.38386913 -15.88680267 112.40183067 C-19.48659125 112.41269843 -23.08625807 112.40920848 -26.68605042 112.4014473 C-28.40515709 112.39945355 -30.124275 112.4018754 -31.84336853 112.40888596 C-34.25069236 112.41654995 -36.65719041 112.40482796 -39.06445312 112.38818359 C-39.76699722 112.39425629 -40.46954132 112.40032898 -41.19337463 112.40658569 C-46.22337654 112.34252429 -49.59721246 111.25800202 -54 109 C-57.79287905 104.95426234 -58.13282143 101.19252554 -58.20874023 95.80371094 C-58.22803085 94.5251825 -58.24732147 93.24665405 -58.26719666 91.92938232 C-58.28200489 90.53105687 -58.29577815 89.13272013 -58.30859375 87.734375 C-58.31516558 87.02874672 -58.3217374 86.32311844 -58.32850838 85.59610748 C-58.36107522 81.85982772 -58.38553074 78.12357612 -58.4050293 74.38720703 C-58.42282725 71.3024729 -58.45762388 68.21865559 -58.50756836 65.13427734 C-58.56791802 61.4024422 -58.59852436 57.67145543 -58.60820198 53.93915558 C-58.6167338 52.52138642 -58.63549624 51.10363855 -58.6649456 49.6861496 C-58.90977633 37.22948524 -58.90977633 37.22948524 -55.2331543 32.67358398 C-52.88747659 30.48731916 -50.83054978 29.09333387 -47.6484375 28.42578125 C-42.4801013 26.99709157 -38.85632856 24.41006366 -34.625 21.1875 C-33.86477539 20.62651611 -33.10455078 20.06553223 -32.32128906 19.48754883 C-28.1198132 16.38018943 -23.96745431 13.21056954 -19.8203125 10.03125 C-18.97259277 9.38905518 -18.12487305 8.74686035 -17.25146484 8.08520508 C-15.61409004 6.84303112 -13.98631938 5.58806946 -12.36962891 4.3190918 C-5.112192 -1.18317107 -5.112192 -1.18317107 0 0 Z M-53 37 C-54.35832423 39.71664845 -54.15730277 41.88953759 -54.19287109 44.9309082 C-54.20893402 46.17592606 -54.22499695 47.42094391 -54.24154663 48.70368958 C-54.25303364 50.06937986 -54.26364226 51.43507778 -54.2734375 52.80078125 C-54.27876118 53.48775778 -54.28408485 54.17473431 -54.28956985 54.88252831 C-54.31629506 58.51924906 -54.33567122 62.15593556 -54.35009766 65.79272461 C-54.36343528 68.80084658 -54.39128328 71.80828989 -54.43212891 74.81616211 C-54.48146845 78.44954777 -54.50622 82.08231803 -54.51332474 85.7160244 C-54.52003392 87.09913029 -54.53524779 88.48222262 -54.55921555 89.8651371 C-54.59089086 91.80348557 -54.5879004 93.74230594 -54.58349609 95.6809082 C-54.59158295 96.78296097 -54.5996698 97.88501373 -54.60800171 99.02046204 C-53.76801408 103.13685677 -52.3887792 104.55105699 -49 107 C-46.10090162 107.50023794 -43.78689936 107.69582518 -40.89257812 107.6628418 C-40.0903331 107.67320969 -39.28808807 107.68357758 -38.46153259 107.69425964 C-35.81758024 107.72129822 -33.17529023 107.71167613 -30.53125 107.69921875 C-28.68948912 107.70512853 -26.84773208 107.71237561 -25.00598145 107.72090149 C-21.14912882 107.73277634 -17.2928535 107.72608278 -13.43603516 107.70678711 C-8.49578205 107.68389437 -3.55724817 107.71068586 1.38283539 107.75184917 C5.18507558 107.7774349 8.98690476 107.7748454 12.78919983 107.76395607 C14.61045391 107.76247005 16.4317396 107.77015167 18.25291443 107.78720665 C20.80052725 107.80719306 23.34510484 107.78878359 25.89257812 107.76049805 C26.64285782 107.77421448 27.39313751 107.78793091 28.16615295 107.80206299 C31.03622524 107.73843912 33.3194511 107.55511201 35.59123516 105.70205688 C38.32891001 102.54328089 39.62396155 100.21801579 39.48828125 96.0390625 C39.47216797 95.15605469 39.45605469 94.27304688 39.43945312 93.36328125 C39.39755859 92.45964844 39.35566406 91.55601562 39.3125 90.625 C39.28994141 89.69816406 39.26738281 88.77132812 39.24414062 87.81640625 C39.18553677 85.54257665 39.1035693 83.27215114 39 81 C33.70836576 80.82196371 28.65659582 80.67107694 23.5 82 C17.93622893 83.36846793 11.30994764 84.68412209 6.00390625 81.984375 C3.3564772 79.87658976 2.07269067 78.218072 1 75 C0.59837882 70.44314431 0.45942953 66.33720064 2.1875 62.0625 C5.17406429 58.6639958 7.53315508 57.17961366 12.0625 56.625 C15.51993647 56.95427966 18.41666111 57.59443575 21.75 58.5 C27.6050956 60.07466586 32.96894421 60.32054824 39 60 C39.08132642 56.95778935 39.14065374 53.9177762 39.1875 50.875 C39.21263672 50.0190625 39.23777344 49.163125 39.26367188 48.28125 C39.32323594 43.11903094 39.04330692 39.39056863 36 35 C32.38498119 32.46900857 28.52750888 32.70417044 24.28149414 32.70947266 C23.50865585 32.70275543 22.73581757 32.69603821 21.93955994 32.68911743 C19.38802643 32.67013916 16.83675592 32.66621353 14.28515625 32.6640625 C12.50923047 32.65763508 10.73330575 32.65090676 8.9573822 32.64389038 C5.23596745 32.63191851 1.51464554 32.62820953 -2.20678711 32.62939453 C-6.9729294 32.62959786 -11.73847636 32.60228108 -16.5044775 32.56785011 C-20.17194854 32.54560342 -23.83927572 32.54155628 -27.50680733 32.54261398 C-29.26387143 32.54025522 -31.02093933 32.5314162 -32.77793694 32.51594925 C-35.23641463 32.49633133 -37.69360069 32.50210971 -40.15209961 32.51416016 C-41.23779739 32.49730164 -41.23779739 32.49730164 -42.34542847 32.48010254 C-47.16662911 32.54008984 -49.61590328 33.5789449 -53 37 Z " fill="#06101A" transform="translate(113,38)"/>
<path d="M0 0 C1.05629105 -0.0033284 2.11258209 -0.0066568 3.20088196 -0.01008606 C5.42192148 -0.015115 7.64296846 -0.01749564 9.86401367 -0.01733398 C13.2122074 -0.01951427 16.56006771 -0.03769681 19.90820312 -0.05664062 C51.08841707 -0.14027404 51.08841707 -0.14027404 57.55078125 4.16796875 C55.94704815 4.81487797 54.34277819 5.46045639 52.73828125 6.10546875 C51.84496094 6.46511719 50.95164062 6.82476562 50.03125 7.1953125 C46.02885295 8.76475638 42.99755173 9.30509118 38.70922852 9.3449707 C37.50690079 9.35780594 36.30457306 9.37064117 35.06581116 9.38386536 C33.11124245 9.39494576 33.11124245 9.39494576 31.1171875 9.40625 C30.45089766 9.41032553 29.78460781 9.41440105 29.09812737 9.41860008 C25.56354968 9.43945918 22.02901066 9.45375506 18.49438477 9.46313477 C14.87341119 9.47412973 11.253064 9.50844787 7.63230991 9.54830647 C4.82412215 9.57469137 2.01607778 9.58284628 -0.79222298 9.58641624 C-2.76614834 9.59355414 -4.73997484 9.61990885 -6.71372986 9.64680481 C-14.816457 9.62754331 -22.06020039 8.69907681 -29.44921875 5.16796875 C-29.77921875 4.50796875 -30.10921875 3.84796875 -30.44921875 3.16796875 C-20.42370912 0.33056037 -10.37158213 0.01169705 0 0 Z " fill="#E5E5E5" transform="translate(94.44921875,159.83203125)"/>
<path d="M0 0 C6.56513906 1.74706403 12.9130095 2.36107732 19.67944336 2.65820312 C24.90335748 2.90335748 24.90335748 2.90335748 26 4 C26.09851171 5.83115883 26.12972629 7.66619933 26.125 9.5 C26.12886719 11.00046875 26.12886719 11.00046875 26.1328125 12.53125 C26 15 26 15 25 16 C22.33007075 16.1877294 19.67327032 16.3276819 17 16.4375 C12.19697045 16.66842447 7.56135354 16.90315818 2.875 18.0625 C-1.00631807 19.00152857 -4.03317082 19.45771106 -8 19 C-10.75329021 17.20437595 -12.52627461 15.94745078 -14 13 C-14.89493776 6.2879668 -14.89493776 6.2879668 -12.68359375 3.10546875 C-8.41661888 -0.97059002 -5.82130909 -1.60587837 0 0 Z " fill="#F27C2D" transform="translate(131,99)"/>
<path d="M0 0 C1.046875 1.9609375 1.046875 1.9609375 1.75 4.375 C1.99234375 5.16648437 2.2346875 5.95796875 2.484375 6.7734375 C3 9 3 9 3 12 C-12.51 12 -28.02 12 -44 12 C-41.08885333 9.08885333 -37.4962113 8.47893302 -33.6328125 7.36328125 C-32.80167938 7.11958298 -31.97054626 6.8758847 -31.11422729 6.62480164 C-29.35495874 6.11134211 -27.59468233 5.60132517 -25.83349609 5.09448242 C-23.13921164 4.31660311 -20.45049423 3.52129271 -17.76171875 2.72460938 C-16.05239423 2.22809511 -14.34276809 1.73261778 -12.6328125 1.23828125 C-11.42638596 0.87903313 -11.42638596 0.87903313 -10.19558716 0.51252747 C-9.44155609 0.29867905 -8.68752502 0.08483063 -7.91064453 -0.13549805 C-7.25049347 -0.32710007 -6.59034241 -0.51870209 -5.91018677 -0.71611023 C-3.63644273 -1.05403146 -2.14850578 -0.79826796 0 0 Z " fill="#00A35D" transform="translate(132,55)"/>
<path d="M0 0 C-0.33 0.99 -0.66 1.98 -1 3 C-3.89563706 4.11609363 -6.71982842 4.12645131 -9.796875 4.12939453 C-10.7446582 4.13254669 -11.69244141 4.13569885 -12.66894531 4.13894653 C-14.19406738 4.13591019 -14.19406738 4.13591019 -15.75 4.1328125 C-17.32539551 4.13424759 -17.32539551 4.13424759 -18.93261719 4.13571167 C-21.15169332 4.13639174 -23.37077145 4.13454953 -25.58984375 4.13037109 C-28.98702461 4.12502044 -32.38407326 4.13032198 -35.78125 4.13671875 C-37.93750029 4.13605794 -40.0937505 4.13477671 -42.25 4.1328125 C-43.26674805 4.13483673 -44.28349609 4.13686096 -45.33105469 4.13894653 C-46.27883789 4.13579437 -47.22662109 4.13264221 -48.203125 4.12939453 C-49.03489258 4.12859894 -49.86666016 4.12780334 -50.72363281 4.12698364 C-52.99833146 4.00009308 -54.87051056 3.82078988 -57 3 C-57.33 2.01 -57.66 1.02 -58 0 C-39.24276983 -3.57280575 -18.75723017 -3.57280575 0 0 Z " fill="#DBDBDC" transform="translate(137,163)"/>
<path d="M0 0 C3.68646141 1.45855647 5.16143971 3.30229045 7.25 6.625 C8.03117187 7.85089844 8.03117187 7.85089844 8.828125 9.1015625 C9.21484375 9.72804688 9.6015625 10.35453125 10 11 C8.741875 11.37511719 7.48375 11.75023437 6.1875 12.13671875 C4.45832615 12.65362179 2.72916004 13.17055075 1 13.6875 C0.09967041 13.95570557 -0.80065918 14.22391113 -1.72827148 14.50024414 C-6.09530366 15.80646325 -10.45179563 17.13257134 -14.78515625 18.546875 C-15.51025391 18.78188721 -16.23535156 19.01689941 -16.98242188 19.2590332 C-18.34425479 19.7032273 -19.70376446 20.15462412 -21.06054688 20.61401367 C-25.66794003 22.11068666 -25.66794003 22.11068666 -29 21 C-28.16339844 20.40574219 -27.32679687 19.81148437 -26.46484375 19.19921875 C-17.58389779 12.87924183 -8.77578423 6.46507354 0 0 Z " fill="#008D50" transform="translate(109,42)"/>
<path d="M0 0 C0.88558594 0.0721875 1.77117187 0.144375 2.68359375 0.21875 C4.9375 0.4375 4.9375 0.4375 8 1 C8.495 1.99 8.495 1.99 9 3 C8.13503906 2.9292627 7.27007812 2.85852539 6.37890625 2.78564453 C-5.31405867 1.93440387 -16.96980662 1.84702907 -28.69042969 1.86962891 C-31.99418729 1.87499057 -35.29780899 1.86965158 -38.6015625 1.86328125 C-50.10894533 1.86004593 -61.52726881 2.06174944 -73 3 C-72.67 2.34 -72.34 1.68 -72 1 C-69.30503629 0.50500667 -66.72724254 0.22230798 -64 0 C-63.02160156 -0.0928125 -62.04320313 -0.185625 -61.03515625 -0.28125 C-40.94758606 -1.87937713 -20.06291951 -1.90320185 0 0 Z " fill="#EFEFEF" transform="translate(140,159)"/>
<path d="M0 0 C1.89298828 -0.00580078 1.89298828 -0.00580078 3.82421875 -0.01171875 C5.03980469 -0.01042969 6.25539063 -0.00914062 7.5078125 -0.0078125 C8.61012207 -0.00668457 9.71243164 -0.00555664 10.84814453 -0.00439453 C13.63885297 0.11490499 16.16040361 0.49001775 18.875 1.125 C13.8725439 6.1274561 2.26202843 4.34537041 -4.375 4.375 C-5.54546875 4.395625 -6.7159375 4.41625 -7.921875 4.4375 C-9.0459375 4.44265625 -10.17 4.4478125 -11.328125 4.453125 C-12.85421387 4.46714355 -12.85421387 4.46714355 -14.41113281 4.48144531 C-17.49008941 4.07704835 -18.84805765 3.18198728 -21.125 1.125 C-14.11610397 -0.1930909 -7.11067446 -0.02192397 0 0 Z " fill="#BDBEBF" transform="translate(112.125,161.875)"/>
<path d="M0 0 C3.5625 0.1875 3.5625 0.1875 5.5625 2.1875 C5.896228 5.32454316 6.09099028 7.35304166 4.375 10.0625 C1.90742892 11.59409584 0.41730169 11.61572025 -2.4375 11.1875 C-4.3125 10.125 -4.3125 10.125 -5.4375 8.1875 C-4.89124449 0.26679515 -4.89124449 0.26679515 0 0 Z " fill="#050E1A" transform="translate(126.4375,102.8125)"/>
<path d="M0 0 C1.28583984 0.00451172 2.57167969 0.00902344 3.89648438 0.01367188 C7.03520653 0.02533999 10.17382728 0.04170985 13.3125 0.0625 C13.3125 0.3925 13.3125 0.7225 13.3125 1.0625 C12.61165283 1.08755615 11.91080566 1.1126123 11.1887207 1.13842773 C8.00064512 1.25476545 4.81283758 1.37732044 1.625 1.5 C-0.02918945 1.55897461 -0.02918945 1.55897461 -1.71679688 1.61914062 C-2.78349609 1.66103516 -3.85019531 1.70292969 -4.94921875 1.74609375 C-6.41814575 1.80108032 -6.41814575 1.80108032 -7.91674805 1.85717773 C-10.58215177 2.05469333 -13.08219788 2.47823033 -15.6875 3.0625 C-15.0275 3.7225 -14.3675 4.3825 -13.6875 5.0625 C-19.46557024 5.2983396 -24.20074804 4.93033046 -29.6875 3.0625 C-21.22340341 -1.72875065 -9.3918223 -0.06329377 0 0 Z " fill="#CDCDCD" transform="translate(108.6875,160.9375)"/>
<path d="M0 0 C7.42857143 -0.28571429 7.42857143 -0.28571429 11 2 C5.51324804 3.86783046 0.77807024 4.2358396 -5 4 C-5 3.67 -5 3.34 -5 3 C-2.36 2.67 0.28 2.34 3 2 C2.01 1.34 1.02 0.68 0 0 Z " fill="#D1D1D1" transform="translate(126,162)"/>
<path d="M0 0 C-1.32 0.33 -2.64 0.66 -4 1 C-4 1.66 -4 2.32 -4 3 C-5.98 3 -7.96 3 -10 3 C-10.33 2.34 -10.66 1.68 -11 1 C-7.32589215 -0.17571451 -3.83070817 -0.07366746 0 0 Z " fill="#D1D1D1" transform="translate(90,162)"/>
</svg>
